<svg xmlns="http://www.w3.org/2000/svg" viewBox="0 0 200 200" role="img" aria-label="Indicateurs"><rect width="200" height="200" fill="#F8F7F4"/><g stroke="#0A1628" stroke-width="2.5" fill="none" stroke-linecap="round" stroke-linejoin="round"><g transform="translate(60, 100)"><path d="M -8 -50 L -8 30 Q -8 40 0 40 Q 8 40 8 30 L 8 -50"/><line x1="-12" y1="-50" x2="12" y2="-50"/><rect x="-6" y="0" width="12" height="36" fill="#C9A55C" fill-opacity="0.5" stroke="none"/></g><g transform="translate(100, 100)"><path d="M -8 -50 L -8 30 Q -8 40 0 40 Q 8 40 8 30 L 8 -50"/><line x1="-12" y1="-50" x2="12" y2="-50"/><rect x="-6" y="-15" width="12" height="51" fill="#0A1628" fill-opacity="0.4" stroke="none"/></g><g transform="translate(140, 100)"><path d="M -8 -50 L -8 30 Q -8 40 0 40 Q 8 40 8 30 L 8 -50"/><line x1="-12" y1="-50" x2="12" y2="-50"/><rect x="-6" y="-25" width="12" height="61" fill="#C9A55C" fill-opacity="0.3" stroke="none"/></g></g></svg>